<?xml version="1.0" encoding="UTF-8" standalone="no"?>
<!DOCTYPE svg PUBLIC "-//W3C//DTD SVG 1.1//EN" "http://www.w3.org/Graphics/SVG/1.1/DTD/svg11.dtd">
<!-- 由 Microsoft Visio, SVG Export 生成 按键状态转移图-20230321_2156.svg Page-1 -->
<svg xmlns="http://www.w3.org/2000/svg" xmlns:xlink="http://www.w3.org/1999/xlink" xmlns:ev="http://www.w3.org/2001/xml-events"
		xmlns:v="http://schemas.microsoft.com/visio/2003/SVGExtensions/" width="8.34009in" height="6.91021in"
		viewBox="0 0 600.486 497.535" xml:space="preserve" color-interpolation-filters="sRGB" class="st15">
	<v:documentProperties v:langID="2052" v:metric="true" v:viewMarkup="false">
		<v:userDefs>
			<v:ud v:nameU="msvNoAutoConnect" v:val="VT0(1):26"/>
			<v:ud v:nameU="msvSubprocessMaster" v:prompt="" v:val="VT4(Multiple process)"/>
		</v:userDefs>
	</v:documentProperties>

	<style type="text/css">
	<![CDATA[
		.st1 {fill:#86a3d9;stroke:#c8c8c8;stroke-width:0.25}
		.st2 {fill:#4672c4;stroke:#c8c8c8;stroke-width:0.25}
		.st3 {fill:#feffff;font-family:Calibri;font-size:0.666664em}
		.st4 {font-size:1em}
		.st5 {fill:#ffffff;stroke:#c8c8c8;stroke-width:0.25}
		.st6 {marker-end:url(#mrkr4-23);stroke:#4672c4;stroke-linecap:round;stroke-linejoin:round;stroke-width:1}
		.st7 {fill:#4672c4;fill-opacity:1;stroke:#4672c4;stroke-opacity:1;stroke-width:0.35714285714286}
		.st8 {fill:#ffffff;stroke:none;stroke-linecap:butt;stroke-width:7.2}
		.st9 {fill:#3d64ac;font-family:黑体;font-size:0.666664em}
		.st10 {fill:none;stroke:none;stroke-width:0.25}
		.st11 {fill:#ff0000;font-family:黑体;font-size:0.666664em}
		.st12 {fill:#2c4d89;stroke:#c8c8c8;stroke-width:0.25}
		.st13 {fill:#ffc000;font-family:黑体;font-size:0.666664em}
		.st14 {fill:#4672c4;font-family:黑体;font-size:0.666664em}
		.st15 {fill:none;fill-rule:evenodd;font-size:12px;overflow:visible;stroke-linecap:square;stroke-miterlimit:3}
	]]>
	</style>

	<defs id="Markers">
		<g id="lend4">
			<path d="M 2 1 L 0 0 L 2 -1 L 2 1 " style="stroke:none"/>
		</g>
		<marker id="mrkr4-23" class="st7" v:arrowType="4" v:arrowSize="1" v:setback="5.24" refX="-5.24" orient="auto"
				markerUnits="strokeWidth" overflow="visible">
			<use xlink:href="#lend4" transform="scale(-2.8,-2.8) "/>
		</marker>
	</defs>
	<g v:mID="0" v:index="1" v:groupContext="foregroundPage">
		<v:userDefs>
			<v:ud v:nameU="msvThemeOrder" v:val="VT0(0):26"/>
		</v:userDefs>
		<title>页-1</title>
		<v:pageProperties v:drawingScale="0.0393701" v:pageScale="0.0393701" v:drawingUnits="24" v:shadowOffsetX="8.50394"
				v:shadowOffsetY="-8.50394"/>
		<v:layer v:name="流程图" v:index="0"/>
		<v:layer v:name="连接线" v:index="1"/>
		<g id="group1-1" transform="translate(72,-230.254)" v:mID="1" v:groupContext="group" v:layerMember="0">
			<v:custProps>
				<v:cp v:nameU="Cost" v:lbl="成本" v:type="7" v:format="@" v:langID="2052"/>
				<v:cp v:nameU="Duration" v:lbl="持续时间" v:type="2" v:langID="2052"/>
				<v:cp v:nameU="Resources" v:lbl="资源" v:langID="2052"/>
			</v:custProps>
			<v:userDefs>
				<v:ud v:nameU="visVersion" v:val="VT0(15):26"/>
			</v:userDefs>
			<title>起始状态</title>
			<desc>IDLE PressDown</desc>
			<g id="shape2-2" v:mID="2" v:groupContext="shape" v:layerMember="0">
				<title>工作表.2</title>
				<path d="M0 469.19 A28.3465 28.3465 0 0 1 56.69 469.19 A28.3465 28.3465 0 1 1 0 469.19 Z" class="st1"/>
			</g>
			<g id="shape3-4" v:mID="3" v:groupContext="shape" v:layerMember="0" transform="translate(5.66929,-5.66929)">
				<title>工作表.3</title>
				<path d="M0 474.86 A22.6772 22.6772 0 0 1 45.35 474.86 A22.6772 22.6772 0 1 1 0 474.86 Z" class="st2"/>
			</g>
			<g id="shape1-6" v:mID="1" v:groupContext="groupContent" v:layerMember="0">
				<v:textBlock v:margins="rect(4,4,4,4)" v:tabSpace="42.5197"/>
				<v:textRect cx="28.3465" cy="469.188" width="56.7" height="56.6929"/>
				<text x="21.24" y="466.79" class="st3" v:langID="1033"><v:paragraph v:horizAlign="1"/><v:tabList/>IDLE<v:newlineChar/><tspan
							x="10.24" dy="1.2em" class="st4">PressDown</tspan></text>			</g>
		</g>
		<g id="group4-9" transform="translate(270.425,-230.254)" v:mID="4" v:groupContext="group" v:layerMember="0">
			<v:custProps>
				<v:cp v:nameU="Cost" v:lbl="成本" v:type="7" v:format="@" v:langID="2052"/>
				<v:cp v:nameU="Duration" v:lbl="持续时间" v:type="2" v:langID="2052"/>
				<v:cp v:nameU="Resources" v:lbl="资源" v:langID="2052"/>
			</v:custProps>
			<v:userDefs>
				<v:ud v:nameU="visVersion" v:val="VT0(15):26"/>
			</v:userDefs>
			<title>多状态</title>
			<desc>Release LongPress</desc>
			<g id="shape5-10" v:mID="5" v:groupContext="shape" v:layerMember="0">
				<title>工作表.5</title>
				<path d="M0 469.19 A28.3465 28.3465 0 0 1 56.69 469.19 A28.3465 28.3465 0 1 1 0 469.19 Z" class="st5"/>
			</g>
			<g id="shape6-12" v:mID="6" v:groupContext="shape" v:layerMember="0" transform="translate(5.66929,-5.66929)">
				<title>工作表.6</title>
				<path d="M0 474.86 A22.6772 22.6772 0 0 1 45.35 474.86 A22.6772 22.6772 0 1 1 0 474.86 Z" class="st2"/>
			</g>
			<g id="shape4-14" v:mID="4" v:groupContext="groupContent" v:layerMember="0">
				<v:textBlock v:margins="rect(1,1,1,1)" v:tabSpace="42.5197"/>
				<v:textRect cx="28.3465" cy="469.188" width="56.7" height="56.6929"/>
				<text x="15.81" y="466.79" class="st3" v:langID="2052"><v:paragraph v:horizAlign="1"/><v:tabList/>R<tspan
							class="st4" v:langID="1033">elease<v:newlineChar/></tspan><tspan x="11.99" dy="1.2em" class="st4"
							v:langID="1033">LongPress</tspan></text>			</g>
		</g>
		<g id="shape8-18" v:mID="8" v:groupContext="shape" v:layerMember="1" transform="translate(100.346,-258.601)">
			<title>从中心到中心 1</title>
			<desc>按键触发</desc>
			<v:userDefs>
				<v:ud v:nameU="ScaleFactor" v:val="VT0(1):26"/>
				<v:ud v:nameU="visVersion" v:val="VT0(15):26"/>
			</v:userDefs>
			<v:textBlock v:margins="rect(1,1,1,1)" v:tabSpace="42.5197"/>
			<v:textRect cx="99.2126" cy="469.188" width="108" height="36"/>
			<path d="M22.47 470.14 A115.157 115.157 0 0 1 171.69 466.51 L171.96 466.74" class="st6"/>
			<rect v:rectContext="textBkgnd" x="83.2127" y="463.863" width="31.9999" height="10.6501" class="st8"/>
			<text x="83.21" y="471.85" class="st9" v:langID="2052"><v:paragraph v:horizAlign="1"/><v:tabList/>按键触发</text>		</g>
		<g id="group9-26" transform="translate(468.85,-230.254)" v:mID="9" v:groupContext="group" v:layerMember="0">
			<v:custProps>
				<v:cp v:nameU="Cost" v:lbl="成本" v:type="7" v:format="@" v:langID="2052"/>
				<v:cp v:nameU="Duration" v:lbl="持续时间" v:type="2" v:langID="2052"/>
				<v:cp v:nameU="Resources" v:lbl="资源" v:langID="2052"/>
			</v:custProps>
			<v:userDefs>
				<v:ud v:nameU="visVersion" v:val="VT0(15):26"/>
			</v:userDefs>
			<title>多状态.9</title>
			<desc>PressDown Click</desc>
			<g id="shape10-27" v:mID="10" v:groupContext="shape" v:layerMember="0">
				<title>工作表.10</title>
				<path d="M0 469.19 A28.3465 28.3465 0 0 1 56.69 469.19 A28.3465 28.3465 0 1 1 0 469.19 Z" class="st5"/>
			</g>
			<g id="shape11-29" v:mID="11" v:groupContext="shape" v:layerMember="0" transform="translate(5.66929,-5.66929)">
				<title>工作表.11</title>
				<path d="M0 474.86 A22.6772 22.6772 0 0 1 45.35 474.86 A22.6772 22.6772 0 1 1 0 474.86 Z" class="st2"/>
			</g>
			<g id="shape9-31" v:mID="9" v:groupContext="groupContent" v:layerMember="0">
				<v:textBlock v:margins="rect(1,1,1,1)" v:tabSpace="42.5197"/>
				<v:textRect cx="28.3465" cy="469.188" width="56.7" height="56.6929"/>
				<text x="10.24" y="466.79" class="st3" v:langID="1033"><v:paragraph v:horizAlign="1"/><v:tabList/>PressDown<v:newlineChar/><tspan
							x="20.87" dy="1.2em" class="st4">Click</tspan></text>			</g>
		</g>
		<g id="group12-34" transform="translate(171.213,-58.4181)" v:mID="12" v:groupContext="group" v:layerMember="0">
			<v:custProps>
				<v:cp v:nameU="Cost" v:lbl="成本" v:type="7" v:format="@" v:langID="2052"/>
				<v:cp v:nameU="Duration" v:lbl="持续时间" v:type="2" v:langID="2052"/>
				<v:cp v:nameU="Resources" v:lbl="资源" v:langID="2052"/>
			</v:custProps>
			<v:userDefs>
				<v:ud v:nameU="visVersion" v:val="VT0(15):26"/>
			</v:userDefs>
			<title>多状态.12</title>
			<desc>Hold Release</desc>
			<g id="shape13-35" v:mID="13" v:groupContext="shape" v:layerMember="0">
				<title>工作表.13</title>
				<path d="M0 469.19 A28.3465 28.3465 0 0 1 56.69 469.19 A28.3465 28.3465 0 1 1 0 469.19 Z" class="st5"/>
			</g>
			<g id="shape14-37" v:mID="14" v:groupContext="shape" v:layerMember="0" transform="translate(5.66929,-5.66929)">
				<title>工作表.14</title>
				<path d="M0 474.86 A22.6772 22.6772 0 0 1 45.35 474.86 A22.6772 22.6772 0 1 1 0 474.86 Z" class="st2"/>
			</g>
			<g id="shape12-39" v:mID="12" v:groupContext="groupContent" v:layerMember="0">
				<v:textBlock v:margins="rect(1,1,1,1)" v:tabSpace="42.5197"/>
				<v:textRect cx="28.3465" cy="469.188" width="56.7" height="56.6929"/>
				<text x="20.73" y="466.79" class="st3" v:langID="1033"><v:paragraph v:horizAlign="1"/><v:tabList/>Hold<v:newlineChar/><tspan
							x="15.81" dy="1.2em" class="st4">Release</tspan></text>			</g>
		</g>
		<g id="shape15-42" v:mID="15" v:groupContext="shape" v:layerMember="1" transform="translate(298.772,-258.601)">
			<title>从中心到中心 1.15</title>
			<desc>按键弹开</desc>
			<v:userDefs>
				<v:ud v:nameU="ScaleFactor" v:val="VT0(1):26"/>
				<v:ud v:nameU="visVersion" v:val="VT0(15):26"/>
			</v:userDefs>
			<v:textBlock v:margins="rect(1,1,1,1)" v:tabSpace="42.5197"/>
			<v:textRect cx="99.2126" cy="469.188" width="108" height="36"/>
			<path d="M22.47 470.14 A115.157 115.157 0 0 1 171.69 466.51 L171.96 466.74" class="st6"/>
			<rect v:rectContext="textBkgnd" x="83.2127" y="463.863" width="31.9999" height="10.6501" class="st8"/>
			<text x="83.21" y="471.85" class="st9" v:langID="2052"><v:paragraph v:horizAlign="1"/><v:tabList/>按键弹开</text>		</g>
		<g id="shape16-49" v:mID="16" v:groupContext="shape" v:layerMember="1"
				transform="translate(729.646,487.707) rotate(120.001)">
			<title>从中心到中心 1.16</title>
			<desc>持续触发</desc>
			<v:userDefs>
				<v:ud v:nameU="ScaleFactor" v:val="VT0(1):26"/>
				<v:ud v:nameU="visVersion" v:val="VT0(15):26"/>
			</v:userDefs>
			<v:textBlock v:margins="rect(1,1,1,1)" v:tabSpace="42.5197"/>
			<v:textRect cx="99.2104" cy="469.188" width="108" height="36" transform="rotate(-120.001)"/>
			<path d="M22.47 470.14 A115.154 115.154 0 0 1 171.69 466.51 L171.96 466.74" class="st6"/>
			<rect v:rectContext="textBkgnd" x="-471.932" y="-154.006" width="31.9999" height="10.6501" transform="rotate(-120.001)"
					class="st8"/>
			<text x="-471.93" y="-146.02" transform="rotate(-120.001)" class="st9" v:langID="2052"><v:paragraph v:horizAlign="1"/><v:tabList/>持续触发</text>		</g>
		<g id="shape18-56" v:mID="18" v:groupContext="shape" v:layerMember="1" transform="translate(497.197,736.469) rotate(180)">
			<title>从中心到中心 1.18</title>
			<desc>按键触发</desc>
			<v:userDefs>
				<v:ud v:nameU="ScaleFactor" v:val="VT0(1):26"/>
				<v:ud v:nameU="visVersion" v:val="VT0(15):26"/>
			</v:userDefs>
			<v:textBlock v:margins="rect(1,1,1,1)" v:tabSpace="42.5197"/>
			<v:textRect cx="99.2126" cy="469.188" width="108" height="36" transform="rotate(180)"/>
			<path d="M22.47 470.14 A115.157 115.157 0 0 1 171.69 466.51 L171.96 466.74" class="st6"/>
			<rect v:rectContext="textBkgnd" x="-115.213" y="-474.514" width="31.9999" height="10.6501" transform="rotate(180)"
					class="st8"/>
			<text x="-115.21" y="-466.53" transform="rotate(180)" class="st9" v:langID="2052"><v:paragraph v:horizAlign="1"/><v:tabList/>按键触发</text>		</g>
		<g id="shape20-63" v:mID="20" v:groupContext="shape" v:layerMember="1"
				transform="translate(-231.316,659.543) rotate(-120.001)">
			<title>从中心到中心 1.20</title>
			<desc>按键弹开</desc>
			<v:userDefs>
				<v:ud v:nameU="ScaleFactor" v:val="VT0(1):26"/>
				<v:ud v:nameU="visVersion" v:val="VT0(15):26"/>
			</v:userDefs>
			<v:textBlock v:margins="rect(1,1,1,1)" v:tabSpace="42.5197"/>
			<v:textRect cx="99.2104" cy="469.188" width="108" height="36" transform="rotate(120.001)"/>
			<path d="M22.47 470.14 A115.154 115.154 0 0 1 171.69 466.51 L171.96 466.74" class="st6"/>
			<rect v:rectContext="textBkgnd" x="340.72" y="-325.843" width="31.9999" height="10.6501" transform="rotate(120.001)"
					class="st8"/>
			<text x="340.72" y="-317.85" transform="rotate(120.001)" class="st9" v:langID="2052"><v:paragraph v:horizAlign="1"/><v:tabList/>按键弹开</text>		</g>
		<g id="shape23-70" v:mID="23" v:groupContext="shape" v:layerMember="1" transform="translate(100.346,736.469) rotate(180)">
			<title>中心环绕</title>
			<v:userDefs>
				<v:ud v:nameU="ScaleFactor" v:val="VT0(1):26"/>
				<v:ud v:nameU="visVersion" v:val="VT0(15):26"/>
			</v:userDefs>
			<path d="M35.43 483.36 A15.3543 15.3543 0 1 1 40.91 512.88 L40.56 512.81" class="st6"/>
		</g>
		<g id="shape26-75" v:mID="26" v:groupContext="shape" v:layerMember="1" transform="translate(697.094,410.77) rotate(90)">
			<title>中心环绕.26</title>
			<v:userDefs>
				<v:ud v:nameU="ScaleFactor" v:val="VT0(1):26"/>
				<v:ud v:nameU="visVersion" v:val="VT0(15):26"/>
			</v:userDefs>
			<path d="M35.43 483.36 A15.3543 15.3543 0 1 1 40.91 512.88 L40.56 512.81" class="st6"/>
		</g>
		<g id="shape29-80" v:mID="29" v:groupContext="shape" transform="translate(200.165,-80.6874)">
			<title>工作表.29</title>
			<desc>长按事件</desc>
			<v:textBlock v:margins="rect(1,1,1,1)" v:tabSpace="42.5197"/>
			<v:textRect cx="49" cy="492.535" width="98" height="10"/>
			<rect x="0" y="487.535" width="98" height="10" class="st10"/>
			<text x="33" y="495.2" class="st11" v:langID="2052"><v:paragraph v:horizAlign="1"/><v:tabList/>长按事件</text>		</g>
		<g id="shape30-83" v:mID="30" v:groupContext="shape" transform="translate(398.591,-426.514)">
			<title>工作表.30</title>
			<desc>点击事件</desc>
			<v:textBlock v:margins="rect(1,1,1,1)" v:tabSpace="42.5197"/>
			<v:textRect cx="49" cy="492.535" width="98" height="10"/>
			<rect x="0" y="487.535" width="98" height="10" class="st10"/>
			<text x="33" y="495.2" class="st11" v:langID="2052"><v:paragraph v:horizAlign="1"/><v:tabList/>点击事件</text>		</g>
		<g id="shape31-86" v:mID="31" v:groupContext="shape" transform="translate(211.504,-276.278)">
			<title>工作表.31</title>
			<desc>按下事件</desc>
			<v:textBlock v:margins="rect(1,1,1,1)" v:tabSpace="42.5197"/>
			<v:textRect cx="49" cy="492.535" width="98.01" height="10"/>
			<rect x="0" y="487.535" width="98" height="10" class="st10"/>
			<text x="33" y="495.2" class="st11" v:langID="2052"><v:paragraph v:horizAlign="1"/><v:tabList/>按下事件</text>		</g>
		<g id="shape32-89" v:mID="32" v:groupContext="shape" transform="translate(409.929,-276.278)">
			<title>工作表.32</title>
			<desc>释放事件</desc>
			<v:textBlock v:margins="rect(1,1,1,1)" v:tabSpace="42.5197"/>
			<v:textRect cx="49" cy="492.535" width="98.01" height="10"/>
			<rect x="0" y="487.535" width="98" height="10" class="st10"/>
			<text x="33" y="495.2" class="st11" v:langID="2052"><v:paragraph v:horizAlign="1"/><v:tabList/>释放事件</text>		</g>
		<g id="shape33-92" v:mID="33" v:groupContext="shape" transform="translate(115.126,-43.837)">
			<title>工作表.33</title>
			<desc>按住事件</desc>
			<v:textBlock v:margins="rect(1,1,1,1)" v:tabSpace="42.5197"/>
			<v:textRect cx="49" cy="492.535" width="98.01" height="10"/>
			<rect x="0" y="487.535" width="98" height="10" class="st10"/>
			<text x="33" y="495.2" class="st11" v:langID="2052"><v:paragraph v:horizAlign="1"/><v:tabList/>按住事件</text>		</g>
		<g id="shape34-95" v:mID="34" v:groupContext="shape" transform="translate(288.039,-230.924)">
			<title>工作表.34</title>
			<desc>按下事件</desc>
			<v:textBlock v:margins="rect(1,1,1,1)" v:tabSpace="42.5197"/>
			<v:textRect cx="49" cy="492.535" width="98.01" height="10"/>
			<rect x="0" y="487.535" width="98" height="10" class="st10"/>
			<text x="33" y="495.2" class="st11" v:langID="2052"><v:paragraph v:horizAlign="1"/><v:tabList/>按下事件</text>		</g>
		<g id="group40-98" transform="translate(369.638,-402.091)" v:mID="40" v:groupContext="group" v:layerMember="0">
			<v:custProps>
				<v:cp v:nameU="Cost" v:lbl="成本" v:type="7" v:format="@" v:langID="2052"/>
				<v:cp v:nameU="Duration" v:lbl="持续时间" v:type="2" v:langID="2052"/>
				<v:cp v:nameU="Resources" v:lbl="资源" v:langID="2052"/>
			</v:custProps>
			<v:userDefs>
				<v:ud v:nameU="visVersion" v:val="VT0(15):26"/>
			</v:userDefs>
			<title>停止状态</title>
			<g id="shape41-99" v:mID="41" v:groupContext="shape" v:layerMember="0">
				<title>工作表.41</title>
				<path d="M0 469.19 A28.3465 28.3465 0 0 1 56.69 469.19 A28.3465 28.3465 0 1 1 0 469.19 Z" class="st12"/>
			</g>
			<g id="shape42-101" v:mID="42" v:groupContext="shape" v:layerMember="0" transform="translate(5.66929,-5.66929)">
				<title>工作表.42</title>
				<path d="M0 474.86 A22.6772 22.6772 0 0 1 45.35 474.86 A22.6772 22.6772 0 1 1 0 474.86 Z" class="st2"/>
			</g>
		</g>
		<g id="shape38-103" v:mID="38" v:groupContext="shape" v:layerMember="1"
				transform="translate(928.072,-9.83884) rotate(59.9993) scale(-1,1)">
			<title>从中心到中心 1.38</title>
			<v:userDefs>
				<v:ud v:nameU="ScaleFactor" v:val="VT0(1):26"/>
				<v:ud v:nameU="visVersion" v:val="VT0(15):26"/>
			</v:userDefs>
			<path d="M22.47 470.14 A115.154 115.154 0 0 1 171.69 466.51 L171.96 466.74" class="st6"/>
		</g>
		<g id="shape44-108" v:mID="44" v:groupContext="shape" transform="translate(58.4331,-216.75)">
			<title>工作表.44</title>
			<desc>释放事件</desc>
			<v:textBlock v:margins="rect(1,1,1,1)" v:tabSpace="42.5197"/>
			<v:textRect cx="49" cy="492.535" width="98.01" height="10"/>
			<rect x="0" y="487.535" width="98" height="10" class="st10"/>
			<text x="33" y="495.2" class="st11" v:langID="2052"><v:paragraph v:horizAlign="1"/><v:tabList/>释放事件</text>		</g>
		<g id="shape45-111" v:mID="45" v:groupContext="shape" transform="translate(484.236,-361.987)">
			<title>工作表.45</title>
			<desc>达到按键释放时间</desc>
			<v:textBlock v:margins="rect(1,1,1,1)" v:tabSpace="42.5197"/>
			<v:textRect cx="49" cy="492.535" width="98" height="10"/>
			<rect x="0" y="487.535" width="98" height="10" class="st10"/>
			<text x="17" y="495.2" class="st13" v:langID="2052"><v:paragraph v:horizAlign="1"/><v:tabList/>达到按键释放时间</text>		</g>
		<g id="shape48-114" v:mID="48" v:groupContext="shape" v:layerMember="1"
				transform="translate(149.222,-363.783) rotate(-29.9993) scale(-1,1)">
			<title>从中心到中心 1.48</title>
			<v:userDefs>
				<v:ud v:nameU="ScaleFactor" v:val="VT0(1):26"/>
				<v:ud v:nameU="visVersion" v:val="VT0(15):26"/>
			</v:userDefs>
			<path d="M29.72 478.24 A288.776 288.776 0 0 1 309.06 475.53 L309.38 475.7" class="st6"/>
		</g>
		<g id="shape50-119" v:mID="50" v:groupContext="shape" transform="translate(150.559,-18.3252)">
			<title>工作表.50</title>
			<desc>持续触发</desc>
			<v:textBlock v:margins="rect(1,1,1,1)" v:tabSpace="42.5197"/>
			<v:textRect cx="49" cy="492.535" width="98" height="10"/>
			<rect x="0" y="487.535" width="98" height="10" class="st10"/>
			<text x="33" y="495.2" class="st14" v:langID="2052"><v:paragraph v:horizAlign="1"/><v:tabList/>持续触发</text>		</g>
	</g>
</svg>
